<svg xmlns="http://www.w3.org/2000/svg" viewBox="-2048 -2048 4096 4096"><polygon fill="transparent" stroke="green" stroke-width="8" points="-624 249.415 -496 27.713 64 997.661 -192 997.661 -320 775.959 -448 997.661 -576 997.661 -640 886.81 -448 554.256"/><polygon fill="transparent" stroke="green" stroke-width="8" points="-528 -415.692 -272 -415.692 -832 554.256 -960 332.554 -832 110.851 -1088 110.851 -1152 0 -1088 -110.851 -704 -110.851"/><polygon fill="transparent" stroke="green" stroke-width="8" points="96 -665.108 224 -443.405 -896 -443.405 -768 -665.108 -512 -665.108 -640 -886.81 -576 -997.661 -448 -997.661 -256 -665.108"/><polygon fill="transparent" stroke="green" stroke-width="8" points="624 -249.415 496 -27.713 -64 -997.661 192 -997.661 320 -775.959 448 -997.661 576 -997.661 640 -886.81 448 -554.256"/><polygon fill="transparent" stroke="green" stroke-width="8" points="528 415.692 272 415.692 832 -554.256 960 -332.554 832 -110.851 1088 -110.851 1152 0 1088 110.851 704 110.851"/><polygon fill="transparent" stroke="green" stroke-width="8" points="-96 665.108 -224 443.405 896 443.405 768 665.108 512 665.108 640 886.81 576 997.661 448 997.661 256 665.108"/><line x1="-2048" x2="2048" y1="0" y2="0" stroke="#000"/><line x1="0" x2="0" y1="-2048" y2="2048" stroke="#000"/><defs><marker id="dimension-arrow-head" markerHeight="20" markerWidth="20" orient="auto-start-reverse" refX="20" refY="5"><path fill="red" d="M 0 0 v 10 L 20 5 Z"/></marker></defs><circle cx="0" cy="0" r="512" fill="transparent" stroke="#00f" stroke-dasharray="4" stroke-width="4"/><polygon fill="transparent" stroke="#00f" stroke-dasharray="4" stroke-width="4" points="512 0 256 443.405 -256 443.405 -512 0 -256 -443.405 256 -443.405"/><circle cx="0" cy="0" r="1152" fill="transparent" stroke="#00f" stroke-dasharray="4" stroke-width="4"/><polygon fill="transparent" stroke="#00f" stroke-dasharray="4" stroke-width="4" points="1152 0 576 997.661 -576 997.661 -1152 0 -576 -997.661 576 -997.661"/><polyline fill="transparent" stroke="#00f" stroke-dasharray="4" stroke-width="4" points="576 997.661 -576 -997.661"/><line x1="256" x2="394.564" y1="443.405" y2="363.405" stroke="red" stroke-width="2"/><line x1="-256" x2="-117.436" y1="-443.405" y2="-523.405" stroke="red" stroke-width="2"/><line x1="389.022" x2="-122.978" y1="366.605" y2="-520.205" stroke="red" stroke-width="2" marker-end="url(#dimension-arrow-head)" marker-start="url(#dimension-arrow-head)"/><path id="dimension_path_512d923eaf5467afff13d8852c45dcae" d="M 390.1300145381339 365.9650067376325 L -121.8699854618664 -520.8450067376325"/><text font-size="4rem"><textPath href="#dimension_path_512d923eaf5467afff13d8852c45dcae" side="right" startOffset="50%" text-anchor="middle">1</textPath></text><line x1="576" x2="1823.077" y1="997.661" y2="277.661" stroke="red" stroke-width="2"/><line x1="-576" x2="671.077" y1="-997.661" y2="-1717.661" stroke="red" stroke-width="2"/><line x1="1773.194" x2="621.194" y1="306.461" y2="-1688.861" stroke="red" stroke-width="2" marker-end="url(#dimension-arrow-head)" marker-start="url(#dimension-arrow-head)"/><path id="dimension_path_d9a25a559bb926385dbe25b982a6fad0" d="M 1783.1701308432048 300.7012651596739 L 631.170130843205 -1694.621265159673"/><text font-size="4rem"><textPath href="#dimension_path_d9a25a559bb926385dbe25b982a6fad0" side="right" startOffset="50%" text-anchor="middle">9/4</textPath></text></svg>